<?xml version="1.0" standalone="no"?>
<!DOCTYPE svg PUBLIC "-//W3C//DTD SVG 20010904//EN"
 "http://www.w3.org/TR/2001/REC-SVG-20010904/DTD/svg10.dtd">
<svg version="1.0" xmlns="http://www.w3.org/2000/svg"
 width="300.000000pt" height="419.000000pt" viewBox="0 0 300.000000 419.000000"
 preserveAspectRatio="xMidYMid meet">
<metadata>
Created by potrace 1.10, written by Peter Selinger 2001-2011
</metadata>
<g transform="translate(0.000000,419.000000) scale(0.100000,-0.100000)"
fill="#000000" stroke="none">
<path d="M22 4167 l-22 -23 0 -2056 c0 -1978 1 -2056 18 -2071 12 -11 34 -16
58 -16 22 1 29 4 17 6 -12 2 -36 20 -53 39 l-30 35 0 2009 0 2008 27 33 c15
17 41 38 58 45 l30 13 -41 1 c-30 0 -46 -6 -62 -23z"/>
<path d="M2917 4171 c80 -37 73 158 73 -2083 0 -1974 0 -2003 -20 -2035 -11
-18 -30 -35 -42 -37 -13 -3 -32 -7 -43 -9 -11 -3 3 -5 30 -6 28 0 58 6 68 13
16 12 17 123 17 2075 0 2048 0 2061 -20 2081 -14 14 -33 20 -62 20 l-43 0 42
-19z"/>
<path d="M123 4075 c-17 -7 -36 -22 -42 -34 -14 -25 -14 -42 0 -18 22 38 70
52 199 58 l125 5 -125 2 c-87 1 -135 -3 -157 -13z"/>
<path d="M1629 4073 c-1032 -3 -1057 -4 -1062 -22 -2 -11 -24 -29 -47 -41 -25
-13 -46 -32 -52 -48 l-10 -27 -172 3 -171 3 3 -1200 2 -1200 69 34 c37 19 81
37 97 41 16 3 79 30 139 59 155 75 250 115 272 115 41 0 62 13 78 51 10 21 34
51 53 65 19 15 40 41 47 58 7 17 25 42 39 55 14 13 23 29 19 35 -3 6 -3 8 2 4
9 -9 22 -32 64 -113 38 -74 65 -95 82 -64 7 14 7 19 0 15 -18 -12 -59 23 -54
44 3 12 0 20 -7 20 -8 0 -10 9 -6 28 5 20 4 23 -4 12 -7 -12 -10 -7 -11 20 -1
31 -2 32 -8 10 l-7 -25 -8 25 c-5 14 -16 33 -24 43 -13 15 -14 22 -4 38 7 10
8 19 2 19 -5 0 -14 -17 -19 -37 -7 -24 -24 -49 -46 -66 -19 -15 -35 -33 -35
-40 0 -7 -23 -37 -50 -67 -27 -30 -50 -60 -50 -66 0 -13 -23 -24 -114 -53 -38
-12 -119 -47 -180 -77 -61 -30 -118 -54 -127 -54 -8 0 -19 -4 -25 -8 -23 -20
-126 -54 -135 -45 -6 6 -11 403 -14 1014 -3 552 -6 1038 -6 1079 0 41 0 105 0
143 l1 67 161 0 c148 0 161 1 166 19 4 14 59 51 78 51 3 0 6 -19 7 -42 l1 -43
6 50 c5 42 10 51 28 53 14 2 20 8 16 18 -4 11 6 14 45 14 28 0 54 -5 58 -12 4
-7 3 -8 -4 -4 -7 4 -12 5 -12 1 0 -3 11 -10 25 -15 14 -5 25 -17 25 -28 0 -15
7 -18 33 -17 17 1 38 0 44 -2 22 -9 14 -43 -12 -53 -18 -7 -25 -17 -25 -35 0
-23 -3 -25 -50 -25 -49 0 -50 0 -50 31 0 27 -2 30 -15 19 -12 -10 -18 -10 -30
0 -13 11 -15 8 -15 -19 0 -29 -3 -32 -27 -29 -19 2 -29 10 -34 28 l-7 25 -1
-26 c-2 -46 28 -57 77 -30 20 10 27 10 40 -2 14 -12 63 -14 274 -13 141 0 260
4 264 9 8 8 -23 10 -154 7 -77 -1 -97 1 -113 16 -17 16 -19 16 -19 1 0 -12 -9
-17 -30 -17 l-30 0 0 84 0 83 26 -5 c14 -2 28 -11 31 -19 4 -11 8 -10 18 4 12
15 11 19 -3 24 -13 5 -11 8 11 14 32 8 49 -1 27 -15 -16 -11 -18 -10 70 -13
37 -2 46 -6 48 -22 3 -18 10 -21 62 -21 33 0 60 3 60 6 0 5 -37 11 -80 13 -8
0 -21 8 -28 19 -7 10 -20 18 -28 18 -8 0 -14 4 -14 9 0 6 159 10 405 11 222 0
410 2 417 5 18 6 748 14 748 8 0 -2 -10 -19 -23 -36 -21 -28 -23 -40 -18 -94
5 -52 11 -68 38 -96 52 -56 121 -66 191 -28 29 16 35 2 33 -78 -1 -36 -4 -309
-6 -606 -3 -297 -6 -544 -6 -550 0 -5 0 -82 1 -170 3 -463 -1 -1055 -7 -1055
-13 0 -53 53 -53 70 0 31 -21 78 -38 85 -9 4 -42 9 -74 10 -52 2 -159 29 -183
45 -5 4 -70 26 -144 50 -74 23 -148 51 -165 61 -17 11 -49 24 -70 30 -39 11
-92 54 -114 94 -21 39 -21 8 1 -38 18 -38 31 -50 72 -68 28 -11 77 -34 110
-49 33 -15 76 -33 95 -38 19 -6 96 -32 170 -58 74 -26 150 -46 169 -45 18 0
39 -4 46 -9 9 -8 15 -8 20 0 3 5 17 10 30 10 31 0 59 -41 52 -76 -4 -20 7 -41
44 -92 27 -36 53 -77 57 -91 8 -30 20 2688 11 2767 -3 28 -11 58 -18 65 -15
15 80 14 -1232 10z m1192 -36 c108 -72 45 -239 -86 -228 -73 6 -121 64 -112
139 11 97 116 144 198 89z m-1911 -8 c0 -6 -9 -9 -20 -6 -21 5 -45 -16 -35
-33 4 -6 -10 -10 -37 -10 -31 0 -48 6 -61 20 -29 35 -21 40 68 40 56 0 85 -4
85 -11z m-56 -144 c7 -19 -20 -46 -39 -39 -15 6 -20 35 -8 47 12 12 41 7 47
-8z"/>
<path d="M2673 4005 c-32 -32 -35 -39 -30 -78 16 -117 175 -133 206 -20 20 70
-33 133 -110 133 -22 0 -41 -10 -66 -35z m133 -12 c26 -24 32 -69 14 -104 -9
-17 -59 -49 -75 -49 -4 0 10 30 30 66 20 37 30 64 23 62 -7 -3 -24 -9 -36 -13
-22 -6 -23 -5 -12 15 24 44 3 39 -27 -7 -17 -26 -30 -49 -29 -51 2 -1 16 2 31
8 15 6 29 9 31 7 5 -4 -16 -69 -25 -79 -13 -15 -51 29 -63 74 -11 45 -11 49
12 73 31 33 90 32 126 -2z"/>
<path d="M137 4023 c-4 -3 -7 -14 -7 -24 0 -16 9 -18 70 -16 60 2 70 5 70 20
0 28 -30 33 -49 8 -17 -23 -34 -19 -24 5 4 10 -3 14 -24 14 -16 0 -33 -3 -36
-7z"/>
<path d="M290 4015 c0 -9 10 -16 23 -16 18 -1 16 -3 -8 -9 -28 -7 -28 -8 -5
-9 14 0 32 4 40 9 12 8 11 11 -10 17 l-25 7 25 7 c23 6 23 7 -7 8 -23 1 -33
-4 -33 -14z"/>
<path d="M394 4015 c-9 -22 4 -35 34 -34 24 2 25 2 4 6 -29 6 -24 25 9 34 21
6 20 7 -9 8 -20 1 -35 -5 -38 -14z"/>
<path d="M630 4014 c0 -5 8 -18 16 -29 15 -20 15 -20 30 -1 18 26 18 42 -1 26
-12 -10 -18 -10 -30 0 -8 7 -15 9 -15 4z"/>
<path d="M2242 3998 c-15 -15 -16 -54 -2 -63 7 -4 5 -14 -4 -27 -24 -34 -2
-68 45 -68 30 0 49 17 49 45 0 12 -5 26 -12 33 -9 9 -9 15 0 24 16 16 15 33
-4 52 -18 19 -55 21 -72 4z m53 -34 c0 -10 -8 -20 -17 -22 -18 -3 -26 27 -11
42 12 11 28 0 28 -20z m5 -75 c0 -24 -29 -37 -40 -18 -12 18 7 50 25 43 8 -4
15 -15 15 -25z"/>
<path d="M2368 3993 c-37 -42 -25 -138 20 -154 18 -7 29 -3 49 17 22 22 25 32
21 74 -3 27 -11 56 -18 65 -17 20 -53 19 -72 -2z m50 -15 c14 -14 16 -86 3
-107 -26 -41 -62 38 -42 92 12 30 21 33 39 15z"/>
<path d="M2486 3988 c-25 -36 -21 -104 8 -133 35 -35 67 -22 84 33 12 37 12
46 -5 79 -22 47 -62 57 -87 21z m65 -25 c20 -54 -16 -133 -42 -92 -13 21 -11
93 3 107 18 18 27 15 39 -15z"/>
<path d="M91 3987 c-23 -29 -7 -47 31 -36 18 5 80 9 138 8 148 -2 194 0 187 7
-3 3 -80 6 -171 5 -144 0 -165 2 -168 16 -3 15 -4 15 -17 0z"/>
<path d="M590 3931 c0 -56 3 -71 15 -71 11 0 15 11 15 42 0 40 0 41 20 23 19
-17 21 -17 40 0 20 18 20 17 20 -23 0 -31 4 -42 15 -42 12 0 15 15 15 71 0 75
-2 77 -47 36 l-23 -20 -22 20 c-46 41 -48 39 -48 -36z"/>
<path d="M889 3996 c-8 -8 3 -136 12 -136 5 0 9 14 9 30 0 17 4 30 8 30 5 0
18 -13 30 -30 13 -16 32 -30 43 -30 19 0 18 3 -10 37 l-30 36 20 28 c23 32 24
39 5 39 -8 0 -23 -13 -33 -30 -22 -37 -35 -39 -31 -3 3 23 -11 41 -23 29z"/>
<path d="M1020 3930 c0 -40 4 -70 10 -70 6 0 10 30 10 70 0 40 -4 70 -10 70
-6 0 -10 -30 -10 -70z"/>
<path d="M981 3952 c-6 -12 -5 -23 5 -37 13 -17 14 -16 14 18 0 41 -5 46 -19
19z"/>
<path d="M1150 3950 c-6 -4 -20 -6 -29 -3 -14 3 -16 -3 -13 -41 5 -55 20 -61
24 -8 2 25 8 37 18 37 10 0 16 -12 18 -37 4 -42 32 -55 32 -15 0 55 -22 84
-50 67z"/>
<path d="M1227 3948 c-23 -12 -21 -35 3 -48 11 -6 20 -15 20 -21 0 -6 -9 -8
-20 -4 -11 4 -20 2 -20 -4 0 -16 46 -13 60 4 10 12 10 18 0 30 -7 8 -19 15
-26 15 -8 0 -14 5 -14 11 0 6 9 9 20 6 11 -3 20 -2 20 3 0 13 -25 18 -43 8z"/>
<path d="M750 3905 c0 -54 25 -64 33 -12 5 39 0 57 -19 57 -10 0 -14 -13 -14
-45z"/>
<path d="M1060 3905 c0 -33 4 -45 15 -45 11 0 15 12 15 45 0 33 -4 45 -15 45
-11 0 -15 -12 -15 -45z"/>
<path d="M2122 3870 c0 -19 2 -29 5 -21 5 11 7 11 14 0 6 -9 9 -2 8 21 0 28
-2 31 -8 15 -8 -20 -8 -20 -13 0 -4 12 -6 6 -6 -15z"/>
<path d="M2166 3893 c-3 -3 -6 -17 -6 -30 0 -22 2 -23 15 -9 8 8 15 19 15 25
0 13 -15 22 -24 14z"/>
<path d="M1379 3789 c-17 -10 3 -19 58 -24 26 -2 49 -9 51 -15 2 -5 29 -10 60
-10 30 0 70 -5 89 -12 18 -6 36 -9 39 -5 10 10 3 15 -26 19 -14 2 -29 6 -35 9
-5 4 -19 5 -30 3 -29 -5 -83 15 -96 34 -10 16 -10 16 -5 0 6 -21 2 -22 -27 -6
-25 13 -63 17 -78 7z"/>
<path d="M1439 3713 c-1 -4 -1 -11 0 -15 0 -5 -5 -8 -11 -8 -8 0 -5 -7 6 -15
19 -15 19 -15 -5 -17 -13 0 -32 -1 -41 0 -9 1 -19 -7 -22 -16 -6 -18 -63 -67
-79 -67 -4 0 -12 -6 -16 -14 -5 -8 -16 -11 -30 -6 -11 3 -21 2 -21 -3 0 -17
27 -21 48 -6 17 12 21 12 26 -1 3 -8 11 -15 17 -15 9 0 9 4 0 14 -18 21 1 27
53 17 34 -6 46 -5 43 3 -2 6 -15 12 -30 14 -20 2 -24 7 -19 20 10 28 25 39 46
34 13 -3 17 -1 12 6 -5 8 2 12 21 11 15 0 23 -3 16 -5 -9 -4 -9 -11 -1 -30 9
-19 18 -24 35 -21 17 3 23 0 23 -14 0 -12 7 -19 19 -19 11 0 23 -5 26 -10 4
-6 11 -8 16 -4 5 3 17 0 25 -7 8 -6 17 -10 19 -7 10 9 -7 38 -21 38 -9 0 -14
11 -14 30 0 17 -4 30 -10 30 -5 0 -10 -12 -10 -26 0 -20 -4 -25 -16 -20 -9 3
-18 6 -20 6 -2 0 -4 7 -4 15 0 10 -7 15 -17 13 -13 -2 -19 5 -21 22 -2 13 -11
29 -19 36 -9 6 -13 16 -9 22 3 6 2 13 -4 17 -5 3 -11 3 -11 -2z"/>
<path d="M1484 3699 c-3 -5 2 -9 11 -9 9 0 14 -4 10 -9 -3 -5 -1 -12 5 -16 5
-3 10 -1 10 5 0 6 4 9 9 5 5 -3 12 -2 15 3 2 4 -8 13 -25 19 -17 7 -31 7 -35
2z"/>
<path d="M1726 3671 c-3 -5 4 -11 17 -14 12 -2 31 -8 42 -12 11 -4 7 2 -10 14
-33 23 -41 25 -49 12z"/>
<path d="M1805 3636 c0 -19 2 -33 6 -30 4 2 9 -2 12 -9 5 -14 -8 -14 -92 -1
-32 5 -42 4 -37 -4 4 -7 15 -12 24 -12 9 0 30 -12 46 -27 20 -19 24 -20 12 -5
-11 12 -16 22 -12 22 15 0 162 -51 188 -65 35 -20 41 -19 28 5 -6 11 -15 20
-21 20 -13 0 -33 21 -36 38 -5 21 14 13 44 -18 15 -16 34 -30 41 -30 7 0 11
-4 8 -9 -7 -11 14 -20 32 -13 6 2 12 8 12 12 0 10 -100 76 -111 73 -4 -1 -13
4 -19 12 -19 23 -27 18 -22 -17 4 -26 2 -30 -12 -25 -10 4 -15 3 -11 -3 3 -6
2 -10 -3 -10 -9 0 -24 25 -26 43 -1 5 -12 17 -26 29 -16 13 -19 18 -7 14 20
-6 21 2 3 27 -18 24 -21 22 -21 -17z"/>
<path d="M1591 3651 c-6 -4 -9 -15 -6 -23 5 -13 14 -14 50 -6 29 6 50 6 64 -1
11 -6 28 -11 38 -11 16 1 16 2 2 10 -27 16 -136 38 -148 31z"/>
<path d="M1249 3623 c-9 -2 -19 -15 -22 -29 -3 -16 0 -23 7 -21 6 2 11 10 11
18 0 14 14 29 27 29 4 0 5 -8 2 -17 -5 -15 -4 -15 4 -3 6 8 8 18 6 22 -5 8 -8
8 -35 1z"/>
<path d="M1108 3567 c-14 -11 -11 -13 24 -14 27 -1 38 2 35 10 -5 17 -39 19
-59 4z"/>
<path d="M1425 3569 c-8 -12 -9 -11 28 -27 16 -7 27 -8 27 -2 0 6 -4 10 -9 10
-5 0 -16 7 -25 15 -10 10 -17 12 -21 4z"/>
<path d="M1650 3569 c0 -6 -7 -8 -16 -5 -9 3 -12 2 -9 -4 4 -6 24 -9 45 -8 29
2 36 6 28 16 -13 15 -48 16 -48 1z"/>
<path d="M1191 3527 c-7 -10 -10 -17 -5 -17 5 0 3 -4 -5 -9 -12 -8 -12 -14 -4
-33 l12 -23 0 25 c1 19 4 21 13 12 16 -16 33 -15 20 1 -5 6 -12 23 -14 36 -3
22 -4 23 -17 8z"/>
<path d="M1330 3520 c-22 -13 -10 -17 37 -12 24 2 40 8 37 13 -7 12 -55 11
-74 -1z"/>
<path d="M1762 3480 c7 -21 55 -31 62 -14 3 8 0 14 -7 14 -7 0 -23 3 -36 7
-17 4 -22 2 -19 -7z"/>
<path d="M1133 3471 c-26 -7 -18 -25 14 -33 17 -5 21 -2 18 14 -5 26 -5 26
-32 19z"/>
<path d="M1290 3471 c-8 -6 -11 -13 -7 -17 4 -4 12 -3 18 3 6 6 37 9 77 5 37
-2 65 -2 62 1 -10 11 -135 17 -150 8z"/>
<path d="M2045 3469 c-4 -6 -5 -11 -4 -12 2 -2 20 -10 39 -20 31 -15 32 -17 8
-12 -16 3 -28 1 -28 -4 0 -11 25 -21 51 -21 11 0 23 -8 26 -17 4 -10 21 -33
38 -51 16 -19 33 -41 37 -50 4 -10 7 -12 7 -4 1 13 -77 124 -91 130 -5 2 -8 9
-8 16 0 35 -60 71 -75 45z"/>
<path d="M1730 3460 c0 -5 8 -11 18 -12 9 0 -5 -4 -33 -8 l-50 -7 68 -1 c41
-1 67 2 67 9 0 5 -4 8 -9 5 -5 -3 -14 1 -21 9 -14 17 -40 20 -40 5z"/>
<path d="M1024 3444 c4 -9 -4 -18 -21 -25 -14 -5 -23 -12 -20 -15 7 -8 80 29
84 42 2 5 -9 10 -23 10 -18 2 -24 -2 -20 -12z"/>
<path d="M1475 3449 c19 -12 95 -30 95 -22 0 6 -41 20 -80 27 -30 6 -32 5 -15
-5z"/>
<path d="M1860 3450 c11 -7 11 -10 2 -10 -7 0 -10 -4 -7 -10 3 -5 -2 -10 -12
-11 -13 0 -14 -2 -4 -6 8 -3 20 3 28 13 11 15 17 17 33 6 23 -14 30 -15 30 -4
0 4 -15 13 -33 20 -40 14 -58 15 -37 2z"/>
<path d="M1267 3395 c-26 -54 -20 -64 13 -25 16 19 26 37 22 40 -4 3 -10 8
-13 12 -3 4 -13 -8 -22 -27z"/>
<path d="M1150 3410 c0 -13 37 -50 51 -50 5 0 7 -6 3 -12 -5 -10 -4 -10 6 -1
10 9 8 18 -9 42 -21 30 -51 42 -51 21z"/>
<path d="M1397 3413 c-5 -8 18 -34 25 -28 2 2 37 -1 78 -6 94 -13 130 -13 143
0 11 11 -61 24 -114 20 -19 -1 -50 -1 -69 1 l-35 3 35 7 c34 7 34 7 -12 9 -26
0 -49 -2 -51 -6z"/>
<path d="M1940 3396 c0 -20 27 -28 34 -10 9 23 8 24 -14 24 -11 0 -20 -6 -20
-14z"/>
<path d="M1097 3363 c-7 -12 -1 -58 7 -56 21 5 25 10 30 36 4 21 1 27 -14 27
-10 0 -21 -3 -23 -7z"/>
<path d="M1641 3358 c-30 -11 -26 -14 19 -16 30 -2 40 1 40 12 0 16 -24 17
-59 4z"/>
<path d="M1380 3350 c-11 -7 -4 -10 27 -10 23 0 48 -6 55 -13 16 -16 95 -36
168 -42 30 -3 66 -8 80 -11 15 -3 21 -2 15 4 -5 5 -44 14 -85 20 -41 6 -102
23 -135 37 -64 26 -101 31 -125 15z"/>
<path d="M1022 3315 c-17 -18 -33 -44 -37 -57 -4 -13 -14 -31 -23 -40 -12 -15
-13 -20 -2 -33 11 -13 11 -16 0 -13 -7 2 -15 -3 -17 -9 -3 -7 1 -13 7 -13 10
0 10 -3 0 -15 -10 -12 -50 -85 -50 -91 0 -2 9 -2 20 -1 11 1 20 7 20 15 0 8 5
10 13 6 6 -4 9 -4 5 1 -4 4 -4 13 1 19 12 16 35 89 33 104 -2 6 3 12 10 12 8
0 9 3 1 11 -12 12 -5 56 10 66 7 4 8 -1 3 -13 -6 -15 -5 -17 5 -6 21 20 29 14
19 -14 -15 -39 -12 -42 15 -9 27 34 32 79 11 101 -12 12 -18 9 -44 -21z"/>
<path d="M1720 3341 c0 -6 8 -11 19 -11 10 0 34 -3 52 -6 24 -5 31 -4 24 4
-15 16 -95 27 -95 13z"/>
<path d="M1905 3340 c28 -12 55 -12 55 0 0 6 -17 10 -37 9 -31 0 -34 -2 -18
-9z"/>
<path d="M2120 3338 c8 -7 16 -20 18 -28 6 -29 45 -76 86 -104 l41 -29 -47 46
c-26 25 -55 63 -65 83 -10 21 -25 39 -33 41 -13 4 -13 3 0 -9z"/>
<path d="M1363 3303 c-10 -10 -14 -15 -8 -11 6 4 30 8 54 9 54 4 65 19 13 19
-24 0 -47 -7 -59 -17z"/>
<path d="M909 3248 c-7 -13 -19 -27 -27 -32 -10 -6 -11 -11 -3 -15 8 -5 8 -17
0 -42 -5 -18 -12 -42 -14 -51 -2 -10 -11 -28 -19 -40 -9 -12 -16 -29 -16 -38
0 -22 27 25 66 119 10 21 11 37 5 45 -6 7 -4 18 6 31 15 20 15 20 8 -2 -4 -14
-2 -23 4 -23 12 0 13 2 15 43 2 33 -9 35 -25 5z"/>
<path d="M1470 3261 c11 -8 12 -11 2 -11 -7 0 -11 -4 -8 -9 3 -4 18 -6 32 -3
16 3 25 1 21 -5 -3 -5 13 -10 36 -11 40 -2 41 -1 22 14 -20 16 -19 16 5 9 14
-4 45 -8 70 -9 25 -2 50 -4 55 -6 6 -2 25 0 43 4 38 9 33 27 -6 21 -69 -11
-126 -14 -141 -6 -25 14 -149 24 -131 12z"/>
<path d="M2080 3230 c0 -5 6 -13 13 -17 8 -4 19 -17 25 -28 11 -20 11 -20 12
0 0 11 -4 25 -8 31 -10 14 -42 25 -42 14z"/>
<path d="M1920 3220 c0 -8 75 -86 88 -92 4 -2 7 -8 7 -15 0 -6 4 -15 8 -19 11
-11 9 -26 -3 -19 -23 14 -8 -14 15 -29 26 -17 26 -17 20 11 -14 65 -30 109
-47 129 -10 11 -15 24 -11 27 3 4 0 8 -8 9 -47 5 -69 4 -69 -2z"/>
<path d="M1754 3199 c-7 -12 35 -51 47 -43 11 7 39 -7 34 -17 -3 -4 9 -16 27
-25 l33 -16 -37 39 c-49 50 -94 77 -104 62z"/>
<path d="M2193 3152 c-11 -19 -1 -52 17 -52 12 0 22 34 14 54 -8 21 -16 20
-31 -2z"/>
<path d="M925 3021 c3 -5 -2 -16 -10 -25 -14 -14 -14 -17 2 -36 10 -11 21 -20
26 -20 5 0 4 7 -3 15 -10 12 -10 22 -2 39 9 19 8 25 -4 30 -8 3 -13 2 -9 -3z"/>
<path d="M901 2942 c-1 -6 -12 -22 -26 -34 -13 -11 -22 -25 -19 -30 8 -12 57
50 51 64 -4 11 -6 10 -6 0z"/>
<path d="M933 2893 c-9 -16 -20 -33 -25 -39 -4 -6 -2 -11 7 -11 7 0 13 5 12
11 -1 6 3 10 9 9 7 -1 10 6 7 20 -3 16 -2 18 5 9 7 -11 10 -9 15 7 7 30 -9 26
-30 -6z"/>
<path d="M906 2814 c-8 -22 -8 -26 3 -19 5 3 2 -13 -7 -35 -13 -34 -17 -38
-25 -25 -6 11 -5 21 2 28 15 15 14 24 -2 24 -15 0 -18 -11 -18 -64 0 -98 4
-152 11 -148 5 3 7 -14 6 -38 -4 -57 20 -83 30 -32 3 19 3 55 0 79 -5 29 -1
66 9 106 9 33 13 65 10 69 -2 5 2 11 10 15 23 8 19 56 -4 56 -10 0 -22 -7 -25
-16z"/>
<path d="M1058 2752 c-31 -19 -35 -30 -13 -38 20 -8 41 6 25 16 -9 5 -5 10 11
15 14 5 25 3 27 -4 2 -6 16 -10 30 -10 25 2 25 2 4 6 -13 3 -26 11 -29 19 -7
18 -22 17 -55 -4z"/>
<path d="M1270 2761 c0 -6 -9 -11 -20 -11 -11 0 -20 -4 -20 -10 0 -5 -9 -10
-21 -10 -12 0 -17 -4 -14 -11 4 -6 19 -7 36 -4 16 4 29 3 29 -2 0 -5 13 -8 30
-5 16 2 27 9 24 14 -4 5 -15 8 -25 5 -11 -3 -16 -1 -13 4 3 6 15 9 26 7 12 -2
23 3 25 10 3 7 -1 10 -11 6 -9 -3 -23 -1 -31 6 -10 9 -15 9 -15 1z"/>
<path d="M1865 2760 c-20 -9 -7 -15 24 -11 7 2 11 -1 8 -6 -3 -5 3 -9 14 -9
10 0 19 4 19 8 0 4 -7 8 -15 8 -8 0 -15 5 -15 10 0 12 -8 12 -35 0z"/>
<path d="M2174 2733 c2 -21 -1 -41 -6 -44 -5 -3 -2 -9 7 -12 9 -4 13 -3 10 3
-3 6 -1 10 5 10 6 0 9 4 6 9 -4 5 -1 11 5 13 7 2 7 12 0 31 -15 39 -31 33 -27
-10z"/>
<path d="M1686 2741 c-9 -10 -35 -21 -56 -24 -48 -6 -71 -27 -63 -56 6 -22
-12 -30 -20 -8 -4 8 -6 7 -6 -3 -1 -8 8 -37 19 -65 15 -40 19 -45 21 -25 1 14
1 35 0 48 -4 50 98 129 128 99 8 -8 11 -7 11 1 0 7 14 12 33 13 26 0 29 2 12
9 -11 4 -31 6 -45 4 -14 -2 -19 -1 -12 2 14 6 17 24 4 24 -5 0 -17 -8 -26 -19z"/>
<path d="M2100 2754 c0 -3 7 -18 15 -35 9 -16 13 -34 10 -39 -4 -6 0 -13 9
-16 8 -3 17 -12 20 -19 3 -9 0 -12 -10 -8 -21 8 -17 -3 11 -31 l25 -25 0 34
c0 24 -6 37 -20 45 -11 6 -18 15 -15 21 8 12 -16 67 -32 74 -7 2 -13 2 -13 -1z"/>
<path d="M810 2743 c-8 -3 -18 -11 -23 -17 -20 -28 19 -276 57 -367 8 -20 12
-47 9 -60 -5 -19 -3 -22 7 -12 11 10 8 35 -13 135 -15 68 -27 137 -27 154 0
17 -7 53 -15 80 -14 46 -13 49 7 71 22 24 22 25 -2 16z"/>
<path d="M2276 2679 c-3 -17 -6 -47 -6 -65 0 -18 -9 -71 -20 -116 -40 -170
-48 -208 -43 -208 9 0 36 77 35 103 0 16 8 56 19 90 17 51 36 227 25 227 -2 0
-6 -14 -10 -31z"/>
<path d="M1348 2680 c18 -11 30 -24 27 -29 -3 -5 1 -8 7 -7 16 2 20 15 12 39
-4 12 -16 17 -42 17 l-37 0 33 -20z"/>
<path d="M1655 2685 c-35 -19 -48 -31 -22 -22 47 18 49 16 18 -12 -45 -40 -36
-50 10 -11 33 28 67 41 54 20 -7 -12 3 -50 14 -50 4 0 6 14 3 30 -3 19 0 30 8
30 6 0 9 -8 6 -17 -3 -10 -2 -22 2 -28 8 -12 36 -19 29 -8 -3 5 2 17 10 28 15
19 15 19 9 -7 -4 -17 -2 -28 4 -28 5 0 10 11 10 25 0 28 12 32 33 11 18 -19
87 -47 87 -37 0 5 -7 12 -16 15 -8 3 -12 10 -9 16 9 15 -50 36 -120 45 -33 3
-69 8 -80 11 -11 2 -33 -3 -50 -11z"/>
<path d="M1190 2680 c-90 -9 -175 -60 -102 -60 16 0 39 9 52 20 l24 20 12 -30
c7 -16 19 -30 26 -30 9 0 9 3 0 12 -17 17 -15 48 3 48 8 0 15 -5 15 -11 0 -5
-5 -7 -11 -3 -7 4 -10 1 -7 -7 5 -17 48 -25 48 -10 0 6 -4 11 -10 11 -5 0 -10
5 -10 10 0 18 56 11 74 -9 10 -10 27 -21 39 -24 l22 -6 -22 17 c-12 9 -33 25
-45 34 l-23 18 29 -10 c16 -6 31 -8 34 -6 7 7 -45 26 -66 25 -9 -1 -46 -5 -82
-9z"/>
<path d="M1671 2554 c6 -7 25 -16 43 -18 60 -10 145 -13 140 -5 -2 4 2 9 8 12
31 11 -2 14 -48 5 -40 -8 -63 -7 -103 5 -42 12 -50 13 -40 1z"/>
<path d="M1120 2545 c0 -3 12 -10 28 -16 34 -13 165 -2 139 12 -11 6 -24 6
-36 -1 -11 -5 -26 -8 -33 -6 -26 8 -98 16 -98 11z"/>
<path d="M1571 2465 c-1 -5 3 -17 9 -25 5 -9 5 -19 -2 -27 -8 -10 -7 -12 5 -7
21 8 46 -17 53 -54 5 -27 10 -30 43 -30 30 0 32 2 14 9 -12 4 -30 20 -40 36
-10 15 -25 35 -33 43 -8 9 -23 27 -32 40 -9 14 -17 21 -17 15z"/>
<path d="M1284 2323 c-28 -26 -57 -74 -49 -81 4 -4 15 4 26 18 11 14 28 36 39
48 11 13 20 26 20 28 0 10 -18 3 -36 -13z"/>
<path d="M1365 2310 c-4 -6 -11 -8 -16 -5 -5 3 -6 -1 -2 -10 4 -12 14 -16 37
-12 19 3 45 -3 66 -14 19 -11 42 -19 52 -19 9 0 20 -4 23 -10 3 -5 14 -10 23
-9 13 0 12 3 -5 11 -13 6 -23 15 -23 19 0 16 41 30 69 24 17 -4 32 -1 39 7 14
18 -74 17 -107 -1 -26 -15 -83 -8 -115 15 -24 17 -33 17 -41 4z"/>
<path d="M860 2242 c4 -17 6 -33 3 -35 -2 -3 0 -8 6 -11 15 -9 10 52 -5 65
-11 9 -11 5 -4 -19z"/>
<path d="M1205 2219 c-4 -6 -5 -13 -2 -16 6 -5 -4 -20 -35 -52 -19 -18 -31
-81 -17 -81 5 0 9 -7 9 -15 0 -8 6 -15 14 -15 8 0 16 -6 18 -12 3 -8 13 -3 29
14 13 14 45 32 69 39 l45 12 -35 8 c-31 7 -55 0 -100 -29 -2 -2 2 -7 10 -12
13 -8 12 -10 -2 -10 -13 0 -18 8 -18 31 0 16 -4 28 -9 25 -5 -3 -12 1 -15 10
-4 10 5 25 25 41 16 14 28 32 25 39 -3 8 1 14 9 14 8 0 15 5 15 10 0 13 -27
13 -35 -1z"/>
<path d="M1808 2200 c36 -22 43 -55 12 -57 -11 -1 -20 3 -20 9 0 7 -5 6 -15
-2 -8 -6 -19 -9 -25 -5 -5 3 -10 2 -10 -4 0 -5 -11 -8 -25 -6 -14 1 -25 -1
-25 -4 0 -4 -34 -8 -76 -10 -42 -1 -88 -7 -102 -12 -13 -5 -34 -7 -45 -3 -30
9 -105 6 -125 -5 -31 -19 226 -10 425 15 l49 6 -4 -44 c-2 -32 -1 -39 7 -28 6
8 11 25 11 37 0 12 7 26 16 31 12 7 15 17 9 40 -8 36 -28 55 -64 59 -25 4 -25
3 7 -17z"/>
<path d="M1979 2130 c-11 -7 -10 -10 5 -16 10 -4 22 -16 26 -28 9 -21 9 -20 9
2 1 30 -21 53 -40 42z"/>
<path d="M1161 1988 c0 -10 -5 -18 -11 -18 -5 0 -10 -4 -10 -10 0 -5 7 -7 15
-4 18 7 20 -18 5 -47 -11 -19 -4 -25 15 -11 14 9 18 72 6 72 -5 0 -12 8 -14
18 -4 16 -5 16 -6 0z"/>
<path d="M1815 1990 c-3 -5 -1 -11 4 -14 11 -7 11 -66 0 -66 -4 0 -10 6 -12
13 -3 6 -6 2 -6 -11 -1 -16 3 -21 12 -16 27 16 47 38 47 53 0 20 -37 54 -45
41z"/>
<path d="M940 1934 c0 -31 28 -145 40 -159 4 -5 13 -28 20 -50 15 -45 95 -218
118 -252 8 -13 18 -20 24 -17 5 4 5 10 -1 17 -5 7 -34 63 -65 125 -65 129
-116 273 -116 326 0 20 -4 36 -10 36 -5 0 -10 -12 -10 -26z"/>
<path d="M1977 1925 c-9 -23 6 -25 32 -4 l23 19 -25 0 c-14 0 -27 -7 -30 -15z"/>
<path d="M1735 1874 c8 -13 15 -30 15 -39 0 -29 15 -15 16 16 1 17 -2 25 -6
19 -5 -9 -9 -9 -14 -1 -4 6 -5 15 -2 19 3 5 -1 9 -9 9 -13 0 -13 -3 0 -23z"/>
<path d="M1939 1883 c-1 -2 -2 -8 -3 -13 0 -6 -7 -15 -15 -19 -7 -5 -12 -13
-10 -19 2 -6 19 5 38 23 30 30 32 34 13 32 -12 -1 -23 -3 -23 -4z"/>
<path d="M1325 1860 c-8 -24 7 -53 29 -56 23 -3 20 13 -3 21 -14 4 -18 13 -15
30 5 30 -2 33 -11 5z"/>
<path d="M1084 1859 c-9 -15 104 -122 118 -113 7 4 8 2 4 -4 -4 -7 -2 -12 3
-12 6 0 11 7 11 15 0 8 -4 15 -10 15 -5 0 -10 7 -10 16 0 14 -3 14 -15 4 -12
-10 -15 -9 -15 5 0 10 -3 16 -6 12 -8 -7 -34 17 -34 32 0 6 -6 8 -14 5 -11 -4
-13 0 -9 15 6 22 -11 29 -23 10z"/>
<path d="M1856 1852 c5 -21 -14 -45 -80 -100 -9 -7 -16 -18 -16 -24 0 -12 3
-9 68 51 32 30 60 42 47 21 -3 -5 -1 -10 4 -10 15 0 14 37 -1 43 -10 3 -9 8 2
23 14 17 14 18 -2 6 -13 -10 -17 -10 -22 0 -3 7 -3 3 0 -10z"/>
<path d="M1221 1838 c-5 -13 -7 -25 -4 -28 5 -6 33 30 33 42 0 17 -21 7 -29
-14z"/>
<path d="M1721 1753 c0 -7 -8 -10 -16 -7 -17 7 -48 -14 -40 -26 3 -5 -9 -20
-26 -34 -17 -14 -28 -32 -26 -39 4 -9 6 -9 6 0 1 7 7 10 14 7 11 -4 38 42 41
71 0 5 10 11 20 13 17 4 18 -1 13 -34 l-5 -39 14 34 c8 18 13 41 11 50 -3 9
-5 11 -6 4z"/>
<path d="M1057 1695 c15 -30 29 -53 31 -51 4 5 -46 106 -53 106 -3 0 7 -25 22
-55z"/>
<path d="M1250 1725 c0 -8 -8 -11 -20 -8 -11 3 -20 0 -20 -6 0 -6 3 -10 8 -9
4 1 20 -2 35 -7 20 -5 25 -10 16 -15 -7 -5 -3 -7 13 -7 13 1 25 7 25 14 0 7
-4 10 -9 7 -7 -5 -12 9 -10 27 1 4 -8 9 -18 12 -13 3 -20 0 -20 -8z"/>
<path d="M1550 1703 c0 -8 -4 -12 -9 -9 -9 6 -31 -4 -91 -42 -20 -13 -28 -22
-19 -22 9 0 22 7 29 15 7 8 26 15 42 15 20 0 27 4 22 12 -5 8 -2 9 10 5 10 -4
24 -1 32 7 18 19 18 33 -1 33 -8 0 -15 -7 -15 -14z"/>
<path d="M1320 1673 c0 -15 2 -16 10 -3 7 12 10 12 10 1 0 -8 6 -11 16 -7 14
5 15 4 5 -8 -7 -8 -8 -17 -3 -19 4 -3 13 3 20 13 10 16 7 20 -20 29 -39 14
-38 14 -38 -6z"/>
<path d="M1945 1668 c-14 -43 -35 -141 -35 -166 l0 -31 -72 4 c-54 4 -76 9
-86 22 -11 16 -14 16 -22 3 -5 -8 -10 -19 -10 -24 0 -4 -7 -6 -15 -2 -8 3 -15
1 -15 -4 0 -11 29 -14 100 -10 51 2 57 2 122 -2 39 -2 45 -1 38 12 -8 14 -14
93 -10 115 1 6 2 13 1 18 -2 11 17 9 21 -3 2 -5 3 10 3 35 0 43 -11 60 -20 33z"/>
<path d="M2085 1625 c22 -8 54 -30 71 -49 44 -50 92 -66 208 -70 60 -2 89 -1
71 4 -16 4 -56 8 -87 9 -70 1 -156 32 -189 67 -28 31 -71 54 -96 54 -10 -1 0
-7 22 -15z"/>
<path d="M720 1588 c0 -16 -2 -28 -4 -28 -2 0 -27 -4 -55 -10 -68 -13 -137
-61 -82 -57 11 0 18 4 15 8 -4 8 49 31 81 35 11 2 29 4 39 6 21 3 30 -19 45
-114 7 -45 16 -67 25 -57 3 4 -30 144 -41 169 -3 8 -5 21 -4 28 1 6 -3 20 -8
30 -9 14 -10 13 -11 -10z"/>
<path d="M2110 1557 c20 -56 44 -136 45 -152 1 -5 5 -21 10 -35 5 -14 8 -33 6
-44 -1 -10 1 -16 7 -13 9 6 12 -6 12 -60 0 -18 5 -33 10 -33 5 0 7 6 4 14 -3
8 -1 17 5 21 7 3 11 -2 11 -14 0 -12 3 -21 8 -21 4 0 7 16 7 35 0 19 -3 35 -7
35 -5 0 -8 -4 -8 -10 0 -5 -5 -10 -10 -10 -7 0 -7 6 0 19 6 13 17 17 30 14 11
-3 18 -9 15 -12 -2 -4 2 -8 10 -8 21 0 19 6 -18 41 -41 38 -68 95 -60 124 3
13 1 22 -6 22 -6 0 -10 3 -9 8 1 4 -4 18 -12 32 -8 14 -15 31 -16 38 -5 27
-13 41 -32 51 -20 10 -20 10 -2 -42z"/>
<path d="M119 1448 c-1 -46 -3 -94 -4 -107 -1 -13 1 -47 5 -75 5 -36 8 -6 9
107 0 86 -1 157 -4 157 -3 0 -6 -37 -6 -82z"/>
<path d="M261 1486 c-13 -14 -21 -31 -18 -38 4 -9 6 -8 6 3 1 22 33 49 58 49
22 0 73 -36 73 -51 0 -5 -9 0 -20 11 -11 11 -31 20 -45 20 -27 0 -75 -43 -75
-66 0 -26 39 -54 75 -54 45 0 75 29 75 73 0 69 -83 102 -129 53z m25 -35 c-11
-18 6 -41 30 -41 23 0 29 9 24 40 -1 12 1 13 11 2 19 -17 0 -46 -33 -50 -28
-3 -53 20 -44 43 3 8 8 15 11 15 4 0 4 -4 1 -9z m29 -61 c16 0 37 7 47 17 10
9 18 11 18 5 0 -16 -41 -42 -65 -42 -24 0 -65 26 -65 42 0 6 8 4 18 -5 10 -10
31 -17 47 -17z"/>
<path d="M445 1497 c-26 -20 -29 -93 -4 -118 29 -29 83 -25 108 7 28 35 26 69
-4 99 -27 28 -71 33 -100 12z m92 -19 c24 -23 33 -49 10 -29 -11 8 -13 6 -13
-10 1 -32 -27 -46 -64 -32 -27 10 -30 10 -20 -3 17 -19 60 -18 90 3 l25 16
-24 -26 c-28 -31 -56 -34 -89 -11 -27 18 -27 25 -4 55 l19 22 -1 -24 c-1 -19
4 -24 23 -24 18 0 26 7 32 27 4 15 4 29 1 32 -10 11 -48 6 -70 -10 -25 -17
-30 -3 -6 20 22 23 64 20 91 -6z"/>
<path d="M622 1494 c-12 -8 -22 -19 -22 -25 0 -5 9 0 20 11 33 33 88 22 111
-23 l12 -22 -25 23 c-30 27 -58 28 -90 2 -14 -10 -28 -16 -32 -13 -3 3 -6 -3
-6 -14 0 -35 38 -73 74 -73 41 0 79 26 73 51 -3 10 0 20 5 21 14 5 -17 64 -37
72 -28 10 -60 7 -83 -10z m48 -79 c20 0 25 5 24 24 l-1 24 19 -22 c23 -30 23
-37 -4 -55 -33 -23 -61 -20 -89 11 l-24 26 25 -16 c34 -24 100 -21 100 4 0 6
-8 5 -19 -1 -44 -23 -89 -1 -74 36 6 17 8 16 13 -6 4 -18 13 -25 30 -25z"/>
<path d="M992 1439 c-15 -62 -15 -69 -2 -69 6 0 10 7 10 15 0 8 7 15 15 15 8
0 15 -7 15 -15 0 -8 5 -15 11 -15 7 0 9 9 5 23 -3 12 -9 39 -12 60 -9 52 -28
46 -42 -14z"/>
<path d="M1060 1430 c0 -57 1 -60 24 -60 48 0 62 56 18 75 -12 5 -22 18 -22
27 0 10 -4 18 -10 18 -6 0 -10 -27 -10 -60z m47 -24 c-4 -9 -11 -16 -17 -16
-11 0 -14 33 -3 44 11 10 26 -11 20 -28z"/>
<path d="M1280 1430 c0 -33 4 -60 10 -60 6 0 10 27 10 60 0 33 -4 60 -10 60
-6 0 -10 -27 -10 -60z"/>
<path d="M1580 1430 c0 -33 4 -60 10 -60 6 0 10 11 10 24 0 15 7 26 20 29 37
10 18 67 -22 67 -15 0 -18 -9 -18 -60z"/>
<path d="M2217 1433 c8 -71 23 -77 23 -10 0 42 -4 57 -14 57 -10 0 -12 -11 -9
-47z"/>
<path d="M2282 1451 c-13 -36 5 -76 33 -76 27 0 42 46 27 80 -16 34 -47 33
-60 -4z m43 -26 c0 -32 -19 -45 -29 -19 -9 22 3 56 17 51 7 -2 12 -16 12 -32z"/>
<path d="M2372 1468 c-17 -17 -15 -73 3 -88 34 -28 68 27 46 76 -12 26 -30 31
-49 12z m33 -43 c0 -32 -19 -45 -29 -19 -9 22 3 56 17 51 7 -2 12 -16 12 -32z"/>
<path d="M2452 1468 c-17 -17 -15 -73 3 -88 34 -28 68 27 46 76 -12 26 -30 31
-49 12z m38 -43 c0 -24 -5 -35 -15 -35 -10 0 -15 11 -15 35 0 24 5 35 15 35
10 0 15 -11 15 -35z"/>
<path d="M2532 1468 c-17 -17 -15 -73 4 -89 23 -19 48 1 52 40 5 50 -27 78
-56 49z m38 -43 c0 -24 -5 -35 -15 -35 -10 0 -15 11 -15 35 0 24 5 35 15 35
10 0 15 -11 15 -35z"/>
<path d="M2609 1456 c-14 -29 -4 -75 16 -83 23 -8 45 16 45 51 0 55 -41 76
-61 32z m41 -31 c0 -24 -5 -35 -15 -35 -10 0 -15 11 -15 35 0 24 5 35 15 35
10 0 15 -11 15 -35z"/>
<path d="M2689 1456 c-14 -29 -4 -75 16 -83 23 -8 45 16 45 51 0 55 -41 76
-61 32z m45 -12 c9 -23 -3 -56 -17 -51 -22 7 -21 67 2 67 5 0 12 -7 15 -16z"/>
<path d="M1406 1463 c-13 -14 -6 -84 9 -90 9 -3 19 -2 23 2 4 4 1 10 -5 12 -7
3 -13 16 -13 29 0 14 4 22 10 19 15 -9 12 4 -4 20 -7 8 -16 11 -20 8z"/>
<path d="M1143 1435 c-3 -9 2 -22 13 -30 18 -13 18 -14 2 -15 -25 0 -22 -20 2
-20 27 0 38 29 17 45 -18 13 -24 30 -7 20 6 -3 10 -1 10 4 0 17 -30 13 -37 -4z"/>
<path d="M1207 1444 c-24 -25 7 -82 39 -70 24 9 15 70 -11 74 -12 2 -24 0 -28
-4z"/>
<path d="M1322 1413 c3 -33 6 -38 31 -40 25 -2 27 1 27 38 0 21 -4 39 -10 39
-5 0 -10 -13 -10 -30 0 -16 -4 -30 -10 -30 -5 0 -10 14 -10 30 0 17 -5 30 -11
30 -6 0 -9 -16 -7 -37z"/>
<path d="M1462 1438 c-28 -28 1 -78 35 -62 16 7 15 8 -4 11 -29 5 -30 23 -2
23 15 0 19 4 15 16 -3 9 -6 18 -6 20 0 9 -27 3 -38 -8z"/>
<path d="M1657 1443 c-14 -13 -7 -64 9 -70 24 -9 48 21 40 51 -6 25 -33 35
-49 19z"/>
<path d="M1720 1444 c0 -6 5 -26 11 -44 12 -33 12 -33 24 -10 l13 23 7 -24 8
-24 13 30 c16 37 17 55 4 55 -5 0 -10 -10 -10 -22 -1 -23 -1 -23 -15 2 -12 22
-14 23 -20 7 -7 -17 -8 -17 -21 0 -7 10 -14 13 -14 7z"/>
<path d="M1824 1424 c-8 -33 16 -60 43 -49 16 8 16 9 -4 12 -29 5 -30 23 -2
23 15 0 19 4 15 16 -3 9 -6 18 -6 20 0 2 -9 4 -20 4 -13 0 -22 -9 -26 -26z"/>
<path d="M1899 1450 c-6 -18 -7 -57 -2 -70 4 -10 8 -6 14 14 5 17 4 36 -1 45
-5 9 -10 14 -11 11z"/>
<path d="M1949 1427 c-9 -7 -19 -25 -23 -40 -4 -18 -13 -28 -24 -26 -29 2 -58
-2 -44 -8 17 -7 15 -28 -4 -48 -13 -12 -26 -15 -55 -10 -26 4 -39 3 -39 -4 0
-6 8 -11 19 -11 24 0 44 -24 39 -47 -2 -13 -14 -19 -46 -21 l-42 -3 0 46 c0
33 4 45 15 45 8 0 15 5 15 10 0 15 -30 12 -36 -3 -2 -7 -15 -14 -28 -15 -12
-1 -35 -8 -51 -16 -15 -8 -34 -12 -41 -9 -8 3 -14 0 -14 -6 0 -6 -5 -11 -11
-11 -6 0 -9 9 -6 20 3 11 1 20 -4 20 -5 0 -9 -15 -9 -32 0 -32 1 -33 48 -34
33 -2 41 0 27 6 -19 8 -19 9 1 9 14 1 21 7 20 19 -1 12 7 18 27 20 29 4 36
-14 15 -37 -11 -11 -10 -12 1 -6 9 5 12 4 7 -3 -4 -6 -2 -21 4 -32 9 -17 8
-20 -10 -20 -12 0 -18 -4 -15 -10 3 -5 -1 -10 -9 -10 -8 0 -17 -4 -20 -9 -8
-13 70 6 112 28 45 23 76 56 67 71 -8 13 13 42 25 35 4 -3 11 2 14 11 3 8 10
12 16 9 5 -3 15 5 21 19 7 14 15 23 20 21 4 -3 1 -17 -6 -32 -8 -15 -12 -30
-9 -35 3 -4 -1 -8 -10 -8 -8 0 -17 6 -19 13 -3 6 -6 -3 -6 -20 -1 -18 -6 -33
-12 -33 -6 0 -9 9 -6 20 3 11 1 20 -5 20 -5 0 -8 -12 -6 -27 2 -23 7 -27 25
-25 21 3 22 1 13 -22 -7 -19 -6 -26 2 -26 7 0 3 -7 -8 -16 -18 -15 -18 -15 3
-4 24 11 29 52 10 78 -7 8 -6 17 1 24 8 8 14 5 22 -13 l10 -24 -1 25 c-2 48 1
60 16 60 8 0 15 -4 15 -10 0 -5 7 -10 15 -10 24 0 17 19 -9 26 -20 5 -24 11
-21 37 2 18 4 40 4 49 1 9 8 24 17 32 18 19 6 21 -17 3z"/>
<path d="M1797 1365 c-16 -12 -16 -13 5 -18 27 -8 44 6 26 21 -9 7 -18 7 -31
-3z"/>
<path d="M1180 1362 c0 -5 7 -23 16 -41 13 -25 19 -30 30 -20 11 9 10 16 -9
40 -22 28 -37 36 -37 21z"/>
<path d="M2514 1344 c9 -36 11 -38 28 -27 10 6 8 13 -11 31 l-24 24 7 -28z"/>
<path d="M229 1296 c-119 -99 -111 -74 -112 -341 -1 -128 1 -231 5 -229 3 2 7
104 7 226 1 257 -1 251 105 337 59 47 73 61 63 61 -2 0 -32 -24 -68 -54z"/>
<path d="M663 1333 c9 -2 18 -9 18 -14 1 -5 2 -14 3 -21 3 -26 23 -16 23 12 0
27 -3 30 -31 29 -17 -1 -23 -3 -13 -6z"/>
<path d="M2336 1305 c4 -9 0 -15 -10 -15 -9 0 -16 -5 -16 -11 0 -8 36 -4 48 6
5 5 -11 35 -19 35 -4 0 -6 -7 -3 -15z"/>
<path d="M2410 1282 c0 -11 -9 -22 -20 -25 -11 -3 -20 -12 -20 -21 0 -14 5
-13 30 6 31 22 38 42 20 53 -5 3 -10 -3 -10 -13z"/>
<path d="M501 1253 c1 -23 3 -29 6 -15 2 12 9 22 14 22 5 0 10 -10 10 -22 1
-19 2 -20 6 -5 3 11 -4 27 -16 38 l-21 20 1 -38z"/>
<path d="M1051 1253 c1 -37 2 -37 8 -8 4 20 9 26 14 17 5 -7 13 -10 18 -6 10
6 -17 33 -33 34 -5 0 -7 -17 -7 -37z"/>
<path d="M1411 1253 c1 -21 3 -30 6 -20 2 9 12 17 21 17 14 1 14 2 -3 12 -19
11 -19 11 0 19 19 7 18 8 -2 8 -20 1 -23 -4 -22 -36z"/>
<path d="M2030 1257 c0 -34 3 -38 22 -35 28 4 36 36 11 45 -10 4 -21 11 -25
17 -4 6 -8 -6 -8 -27z"/>
<path d="M351 1242 c2 -23 2 -24 6 -4 2 12 8 22 13 22 5 0 11 -10 13 -22 l4
-23 2 23 c1 27 18 29 24 2 4 -17 4 -17 3 2 -1 18 -8 23 -33 25 -30 3 -33 0
-32 -25z"/>
<path d="M554 1256 c-8 -20 3 -36 24 -35 14 0 13 2 -3 9 -18 8 -18 9 -2 9 10
1 17 6 15 13 -7 19 -27 21 -34 4z"/>
<path d="M635 1261 c-3 -5 0 -13 6 -17 8 -4 7 -9 -2 -15 -10 -6 -8 -9 9 -9 23
0 30 14 12 25 -6 4 -8 11 -5 16 4 5 2 9 -4 9 -5 0 -12 -4 -16 -9z"/>
<path d="M681 1242 c2 -23 2 -24 6 -4 2 12 8 22 13 22 5 0 11 -10 13 -22 l4
-23 2 23 c1 27 18 29 24 2 4 -17 4 -17 3 2 -1 18 -8 23 -33 25 -30 3 -33 0
-32 -25z"/>
<path d="M897 1264 c-16 -17 -7 -44 16 -43 21 0 21 1 2 9 -18 8 -18 9 -2 9 10
1 17 6 15 13 -5 14 -22 21 -31 12z"/>
<path d="M982 1248 c4 -30 23 -33 23 -3 0 14 -6 25 -13 25 -8 0 -12 -9 -10
-22z"/>
<path d="M1141 1256 c-16 -19 -6 -36 20 -36 15 0 20 6 17 22 -4 27 -21 33 -37
14z"/>
<path d="M1286 1254 c-8 -22 17 -49 35 -38 9 5 8 9 -7 15 -18 7 -18 8 -1 8 10
1 17 7 15 14 -7 19 -35 20 -42 1z"/>
<path d="M1461 1248 c-1 -22 4 -28 19 -28 15 0 20 6 19 28 -2 23 -2 24 -6 5
-2 -13 -8 -23 -13 -23 -5 0 -11 10 -13 23 -4 19 -4 18 -6 -5z"/>
<path d="M1761 1240 l0 -25 11 25 c11 25 11 25 15 3 3 -13 9 -23 15 -23 5 0 7
7 4 16 -3 9 -6 19 -6 24 0 5 -9 8 -20 7 -15 -1 -20 -8 -19 -27z"/>
<path d="M2091 1252 c0 -12 -8 -34 -17 -47 -9 -14 -12 -25 -6 -25 6 0 13 4 17
10 3 5 12 7 20 3 8 -3 15 0 15 7 0 6 -4 9 -9 5 -5 -3 -12 -1 -16 5 -3 5 3 10
14 10 17 0 21 6 20 28 -2 23 -2 24 -6 5 -2 -13 -8 -23 -13 -23 -5 0 -11 10
-13 23 l-4 22 -2 -23z"/>
<path d="M2329 1268 c-1 -2 -3 -20 -4 -40 -3 -32 -1 -38 16 -38 10 0 19 7 19
15 0 8 -5 15 -12 15 -9 0 -9 3 0 12 17 17 15 38 -3 38 -8 0 -15 -1 -16 -2z"/>
<path d="M1360 1221 c0 -22 178 -81 243 -81 55 0 35 21 -25 27 -60 5 -128 32
-128 50 0 13 -2 12 -15 -1 -16 -15 -49 -11 -39 5 3 5 -4 9 -15 9 -12 0 -21 -4
-21 -9z"/>
<path d="M557 1194 c5 -10 20 -42 35 -69 14 -28 47 -104 72 -170 53 -139 75
-185 89 -185 6 0 6 5 0 13 -9 11 -25 58 -28 82 -1 6 -11 31 -23 57 -12 26 -22
51 -22 57 0 16 -33 81 -41 81 -4 0 -6 9 -4 20 2 11 0 18 -4 15 -5 -3 -12 6
-15 20 -4 14 -11 25 -17 25 -6 0 -7 5 -4 10 3 6 1 10 -5 10 -6 0 -9 4 -6 9 3
4 -4 17 -15 27 -19 17 -20 17 -12 -2z"/>
<path d="M706 1201 c-3 -4 1 -17 9 -27 8 -10 15 -32 15 -47 0 -16 4 -37 10
-47 7 -14 6 -20 -8 -25 -16 -6 -16 -7 1 -16 9 -6 17 -19 17 -29 0 -11 7 -20
15 -20 15 0 11 23 -9 49 -9 12 -8 13 3 6 11 -6 13 -3 7 16 -3 13 -12 52 -18
87 -11 56 -28 77 -42 53z"/>
<path d="M826 1188 c4 -13 13 -32 20 -43 8 -11 14 -28 14 -37 0 -10 4 -26 9
-36 5 -9 12 -25 15 -34 3 -10 9 -18 14 -18 5 0 -6 38 -24 85 -19 46 -34 89
-34 95 0 5 -5 10 -11 10 -6 0 -8 -9 -3 -22z"/>
<path d="M1235 1201 c-3 -6 -2 -11 4 -11 9 0 45 -55 46 -72 0 -3 11 -17 25
-31 30 -30 45 -49 50 -62 2 -5 9 -24 17 -42 16 -40 16 -41 -2 -46 -11 -3 -10
-4 2 -3 14 1 18 10 16 41 -3 46 -44 110 -148 233 -2 2 -6 -1 -10 -7z"/>
<path d="M1565 1201 c-17 -7 -17 -8 8 -15 16 -3 32 -4 37 -1 5 3 20 1 32 -5
22 -11 22 -10 4 4 -12 10 -29 13 -45 10 -20 -4 -23 -3 -11 5 17 12 4 13 -25 2z"/>
<path d="M2130 1199 c0 -5 4 -8 9 -5 5 3 11 -1 15 -9 8 -22 25 -18 19 5 -5 20
-43 29 -43 9z"/>
<path d="M2220 1199 c0 -7 10 -9 25 -7 14 3 25 1 25 -5 0 -6 3 -7 7 -4 3 4 12
-1 19 -11 8 -9 14 -12 14 -5 0 6 -5 15 -10 18 -6 4 -8 10 -6 14 3 4 -13 8 -34
9 -24 1 -40 -3 -40 -9z"/>
<path d="M450 1187 c0 -9 4 -25 10 -35 22 -40 49 -110 56 -146 4 -22 13 -51
20 -65 8 -14 14 -35 14 -46 0 -12 6 -27 12 -33 10 -10 10 -15 -2 -22 -8 -5
-10 -10 -5 -10 6 0 10 -15 9 -32 0 -18 4 -45 9 -60 9 -27 47 -69 47 -51 0 6
-6 13 -13 16 -8 3 -14 19 -13 39 1 18 -5 39 -11 46 -15 16 -17 32 -3 32 9 0 5
48 -7 80 -3 8 -7 21 -9 28 -1 8 -6 21 -10 30 -4 9 -8 24 -9 32 -4 36 -94 224
-95 197z"/>
<path d="M2774 1169 c3 -17 6 -35 6 -40 0 -5 6 -9 14 -9 12 0 13 7 6 31 -5 18
-7 36 -4 40 3 5 -2 9 -12 9 -13 0 -15 -6 -10 -31z"/>
<path d="M2866 1118 c4 -106 14 -114 14 -10 0 44 -4 83 -8 86 -5 3 -7 -31 -6
-76z"/>
<path d="M2238 1175 c-4 -4 9 -35 28 -69 20 -33 40 -73 46 -88 5 -16 16 -28
23 -28 17 0 26 -35 12 -49 -8 -8 -8 -14 0 -22 16 -16 32 -3 28 24 -5 41 -10
52 -33 73 -24 21 -21 36 6 27 14 -4 15 -3 2 5 -10 8 -18 8 -27 0 -10 -8 -13
-6 -13 10 0 11 -7 25 -16 33 -8 7 -13 21 -11 31 3 10 0 18 -7 18 -7 0 -17 9
-22 21 -5 11 -12 17 -16 14z"/>
<path d="M1841 1106 c-60 -64 -224 -104 -323 -79 -28 8 -56 12 -62 10 -6 -2 6
-7 27 -11 20 -4 37 -11 37 -16 0 -6 28 -10 63 -10 69 0 176 31 216 62 17 13
27 15 31 7 5 -7 14 1 24 22 20 41 16 46 -13 15z"/>
<path d="M2074 1122 c-15 -10 -37 -52 -26 -52 12 0 52 39 52 50 0 12 -11 13
-26 2z"/>
<path d="M2793 1058 c4 -28 10 -54 14 -57 5 -3 9 -22 9 -41 4 -104 16 -287 20
-299 2 -7 -1 -20 -7 -27 -9 -11 -7 -14 11 -14 22 0 22 1 16 128 -8 173 -17
265 -26 277 -4 6 -10 27 -14 48 -11 58 -30 46 -23 -15z"/>
<path d="M386 1032 c5 -4 16 -22 23 -40 18 -43 23 -36 9 11 -7 22 -18 37 -27
37 -10 0 -12 -3 -5 -8z"/>
<path d="M905 969 c8 -23 15 -52 15 -64 0 -12 7 -28 15 -35 8 -7 15 -19 15
-26 0 -8 5 -14 10 -14 12 0 13 13 2 26 -5 5 -14 29 -21 54 -17 65 -32 100 -42
100 -4 0 -2 -19 6 -41z"/>
<path d="M1412 985 c6 -14 15 -25 20 -25 4 0 8 -7 8 -15 0 -8 4 -15 10 -15 5
0 7 -6 4 -14 -4 -10 1 -14 15 -13 26 2 27 23 2 37 -11 5 -28 24 -38 40 -21 36
-37 40 -21 5z"/>
<path d="M1782 951 c-30 -56 -31 -60 -12 -58 21 1 29 17 8 17 -7 0 0 11 15 25
15 15 27 36 27 50 0 14 -1 25 -3 25 -1 0 -17 -27 -35 -59z"/>
<path d="M757 973 c-8 -12 4 -63 14 -63 12 0 12 57 0 65 -5 3 -12 2 -14 -2z"/>
<path d="M1994 938 c-1 -24 -4 -55 -7 -70 -6 -23 -4 -25 20 -20 19 4 23 7 12
11 -14 5 -20 54 -8 65 2 3 27 5 54 5 189 1 189 1 207 24 9 12 16 22 15 23 -1
1 -27 -2 -57 -8 -51 -9 -150 -6 -210 8 -25 5 -26 3 -26 -38z"/>
<path d="M2463 956 c0 -16 4 -23 11 -19 6 4 5 -1 -3 -10 -11 -15 -11 -17 2
-17 22 0 26 32 7 53 -17 17 -17 17 -17 -7z"/>
<path d="M1389 906 c-8 -8 -214 -45 -284 -51 -38 -3 -83 -9 -100 -14 l-30 -8
30 -12 c19 -8 37 -9 50 -3 11 5 52 10 90 12 39 2 80 3 93 4 12 1 22 4 22 9 0
4 15 7 34 7 19 0 38 5 41 10 11 18 42 10 59 -14 8 -14 26 -28 38 -31 13 -4 40
-24 62 -44 24 -23 35 -28 28 -15 -10 20 -9 20 41 17 70 -6 77 -9 77 -35 0 -22
0 -22 27 5 35 34 24 47 -48 53 -78 6 -100 13 -136 40 -18 14 -41 24 -50 22
-10 -2 -18 4 -19 12 -2 34 -4 40 -12 40 -5 0 -11 -2 -13 -4z"/>
<path d="M1560 875 c0 -9 40 -45 50 -45 17 0 11 18 -12 34 -22 16 -38 20 -38
11z"/>
<path d="M770 850 c0 -30 19 -65 21 -40 2 25 -2 44 -12 55 -5 5 -9 0 -9 -15z"/>
<path d="M2746 853 c-4 -9 -9 -60 -12 -112 -3 -53 -7 -101 -8 -106 -2 -7 -37
-11 -85 -10 -45 0 -81 -4 -81 -8 0 -4 45 -6 100 -5 l101 3 2 128 c2 120 -3
149 -17 110z"/>
<path d="M354 811 c13 -47 24 -61 21 -29 -3 33 -16 68 -25 68 -4 0 -3 -18 4
-39z"/>
<path d="M1930 794 c-14 -8 -31 -12 -38 -9 -22 8 -178 -92 -201 -129 -12 -18
-21 -35 -21 -37 0 -3 18 -3 40 -1 22 2 40 8 40 12 0 5 -9 6 -20 3 -32 -9 -24
20 13 42 88 53 144 82 158 80 9 -2 30 10 49 26 34 30 23 37 -20 13z"/>
<path d="M2477 783 c-12 -11 -8 -50 6 -62 20 -16 26 -4 16 31 -10 36 -13 40
-22 31z"/>
<path d="M376 735 c-3 -8 0 -17 6 -21 6 -4 8 -24 4 -50 -3 -24 -2 -44 2 -45
38 -6 80 -4 76 3 -3 4 -14 8 -24 8 -21 0 -42 55 -33 88 6 23 -23 38 -31 17z"/>
<path d="M760 731 c5 -11 15 -23 20 -26 6 -4 8 -11 5 -16 -4 -5 -1 -9 5 -9 6
0 10 -10 8 -22 -2 -15 -9 -22 -20 -22 -10 1 -16 -2 -13 -6 8 -13 -112 -5 -128
9 -13 10 -23 10 -51 0 -32 -12 -37 -11 -50 6 -8 12 -18 16 -23 11 -4 -5 -3
-11 4 -13 7 -2 10 -10 7 -16 -3 -9 33 -12 143 -11 234 2 236 2 221 17 -7 8
-20 12 -30 9 -16 -4 -48 18 -48 34 0 12 -44 74 -53 74 -4 0 -3 -9 3 -19z"/>
<path d="M117 633 c7 -104 13 -106 12 -5 0 45 -5 82 -9 82 -5 0 -6 -35 -3 -77z"/>
<path d="M2468 685 c12 -18 10 -34 -4 -39 -31 -12 -14 -31 27 -29 42 1 69 13
31 13 -13 0 -22 6 -22 15 0 8 -5 15 -12 15 -9 0 -9 3 0 12 17 17 15 27 -7 25
-11 -1 -17 -6 -13 -12z"/>
<path d="M280 640 c0 -22 17 -29 50 -19 25 7 25 7 2 8 -13 1 -21 5 -18 10 3 5
-3 11 -14 14 -15 4 -20 0 -20 -13z"/>
<path d="M1474 641 c1 -11 -7 -16 -22 -15 -16 0 -20 -2 -12 -10 8 -8 19 -6 40
6 22 12 27 13 23 3 -4 -11 8 -14 59 -12 63 2 78 9 78 37 -1 11 -4 10 -15 -4
-8 -11 -15 -17 -15 -14 0 2 -20 2 -45 -2 -30 -5 -46 -3 -49 5 -7 20 -44 25
-42 6z"/>
<path d="M1153 635 c-10 -10 -9 -14 3 -19 24 -9 34 -7 34 8 0 19 -23 26 -37
11z"/>
<path d="M1352 637 c-6 -7 -27 -12 -46 -11 -20 1 -36 -2 -36 -7 0 -16 87 -10
104 7 9 8 16 17 16 20 0 9 -28 3 -38 -9z"/>
<path d="M1776 631 c-13 -15 -14 -20 -4 -24 7 -2 2 -5 -12 -5 -14 -1 -44 -4
-67 -8 -46 -7 -52 -18 -30 -57 6 -12 13 -24 14 -26 1 -1 7 0 13 4 8 5 8 11 -1
21 -9 11 -5 17 22 28 29 13 34 13 37 0 4 -18 16 -18 32 1 13 15 60 21 60 7 0
-4 -34 -24 -75 -45 -97 -48 -104 -75 -11 -42 43 15 58 12 49 -10 -3 -8 0 -15
7 -15 8 0 10 9 6 25 -7 28 12 55 38 55 8 0 18 5 22 12 5 8 2 9 -10 5 -12 -5
-16 -3 -14 5 6 16 158 21 158 5 0 -8 4 -7 12 1 17 17 58 15 58 -3 0 -8 9 -19
19 -25 24 -12 44 -13 37 -1 -4 5 -4 16 0 24 4 12 34 15 170 16 109 0 163 -3
159 -9 -4 -6 -1 -9 7 -8 8 2 12 -4 10 -15 -2 -10 1 -24 7 -31 12 -14 4 -28
-24 -44 -18 -10 -15 -11 19 -12 34 0 37 2 25 16 -10 12 -10 17 0 23 10 6 9 10
-4 15 -10 3 -13 11 -8 18 7 13 9 18 12 37 0 5 9 12 19 14 9 3 -153 5 -361 6
-298 1 -378 4 -375 14 3 6 25 13 51 15 26 2 47 7 47 11 0 5 -16 8 -35 6 -19
-1 -35 2 -35 7 0 15 -27 8 -44 -11z"/>
<path d="M1985 641 c-11 -5 -35 -7 -53 -6 -23 2 -30 -1 -24 -7 6 -6 29 -9 51
-6 22 2 43 -1 45 -7 2 -5 3 0 3 13 -1 12 -1 22 -2 21 0 0 -9 -4 -20 -8z"/>
<path d="M2100 640 c-8 -5 -28 -12 -44 -15 -46 -10 -25 -14 41 -8 35 3 60 10
57 15 -3 5 -15 6 -26 2 -14 -4 -18 -2 -14 5 8 13 6 13 -14 1z"/>
<path d="M2277 643 c-21 -20 -2 -30 63 -31 39 -1 70 1 70 5 0 5 -29 8 -64 8
-48 -1 -63 2 -59 12 6 14 0 17 -10 6z"/>
<path d="M2846 602 c-4 -8 -37 -12 -89 -13 -50 -1 -72 -4 -57 -8 23 -6 25 -12
25 -64 0 -52 2 -57 22 -57 12 0 25 5 28 10 3 6 1 10 -4 10 -6 0 -11 21 -11 50
l0 50 40 0 c44 0 41 5 42 -92 1 -18 6 -28 16 -28 12 0 14 10 9 55 -4 39 -2 55
6 55 9 0 9 2 1 8 -6 4 -13 14 -16 22 -3 10 -6 11 -12 2z"/>
<path d="M190 589 c0 -5 6 -9 13 -9 8 0 22 -8 31 -19 15 -17 15 -19 1 -25 -9
-3 -25 -6 -36 -6 -35 0 -20 -25 16 -26 18 0 32 3 30 6 -8 13 20 40 53 49 20 6
30 6 27 0 -4 -5 4 -9 17 -8 13 0 17 3 11 6 -7 2 -13 9 -13 15 0 6 7 8 15 5 8
-4 17 -2 20 3 4 6 -14 10 -42 11 -26 0 -69 2 -95 4 -27 1 -48 -1 -48 -6z"/>
<path d="M406 565 c16 -24 15 -27 -16 -29 -17 -1 -27 -36 -10 -36 6 0 8 5 5
10 -3 6 0 10 9 10 8 0 17 -6 19 -12 3 -7 6 -3 6 9 1 12 6 25 12 28 6 4 8 13 5
21 -9 24 24 16 35 -8 10 -23 10 -23 5 -1 -2 12 1 24 8 27 6 2 -13 5 -42 5
l-52 1 16 -25z"/>
<path d="M518 580 c12 -5 29 -7 38 -3 9 3 20 0 25 -8 6 -10 11 -11 17 -3 4 7
44 12 103 12 106 1 142 -5 133 -20 -4 -6 4 -4 17 3 32 17 104 25 95 10 -5 -7
2 -11 16 -11 18 0 20 2 8 10 -11 7 -7 10 18 10 17 0 32 -5 32 -11 0 -5 -4 -7
-10 -4 -5 3 -10 2 -10 -3 0 -13 63 -10 72 3 12 16 88 16 95 0 3 -8 10 -15 15
-15 6 0 8 6 5 13 -4 10 6 13 33 13 21 -1 35 -5 32 -10 -9 -15 -9 -76 0 -76 4
0 8 -5 8 -11 0 -5 -5 -7 -10 -4 -5 3 -10 1 -10 -4 0 -6 7 -11 15 -11 12 0 14
8 9 40 -8 52 14 80 63 80 19 0 32 -4 29 -9 -7 -10 13 -9 29 1 19 12 189 7 197
-6 5 -7 8 -5 8 7 0 16 -32 17 -547 16 -338 0 -539 -4 -525 -9z"/>
<path d="M1609 581 c9 -6 10 -11 2 -15 -6 -4 -9 -11 -7 -15 12 -19 14 -66 4
-78 -8 -10 -6 -13 6 -13 13 0 16 12 16 65 0 55 -3 65 -17 65 -14 0 -15 -2 -4
-9z"/>
<path d="M2578 583 c17 -2 47 -2 65 0 17 2 3 4 -33 4 -36 0 -50 -2 -32 -4z"/>
<path d="M1310 552 c0 -5 -9 -17 -19 -29 -13 -13 -16 -25 -10 -34 7 -11 9 -11
9 4 0 9 5 17 11 17 6 0 9 -6 6 -14 -4 -9 2 -13 16 -12 11 1 22 8 24 16 4 13 3
13 -6 0 -17 -25 -25 -2 -7 24 10 16 12 27 6 31 -6 4 -9 1 -8 -6 2 -6 -3 -14
-10 -16 -8 -3 -10 1 -6 11 3 9 3 16 0 16 -3 0 -6 -4 -6 -8z"/>
<path d="M1460 551 c0 -6 6 -8 13 -5 10 3 14 -4 15 -26 1 -27 -2 -30 -21 -24
-17 5 -19 3 -11 -6 7 -6 20 -10 30 -8 14 2 19 12 19 38 -1 28 -5 36 -23 38
-12 2 -22 -1 -22 -7z"/>
<path d="M1524 546 c-11 -29 1 -61 23 -64 24 -4 38 25 28 58 -7 23 -43 27 -51
6z m36 -26 c0 -16 -4 -30 -9 -30 -13 0 -21 27 -15 45 10 25 24 17 24 -15z"/>
<path d="M556 532 c-9 -15 1 -32 20 -32 8 0 14 -5 14 -11 0 -5 -3 -8 -7 -6 -5
3 -14 -1 -21 -9 -11 -12 -8 -14 18 -14 36 0 38 15 7 54 -16 20 -26 25 -31 18z"/>
<path d="M975 531 c-9 -8 -5 -31 5 -31 5 0 7 7 4 15 -5 11 -2 13 10 9 9 -3 16
-9 16 -13 0 -4 7 -8 15 -8 8 0 15 7 15 14 0 8 -4 11 -10 8 -5 -3 -10 -2 -10 2
0 9 -37 12 -45 4z"/>
<path d="M1081 523 c-1 -18 4 -23 24 -23 26 0 35 23 13 36 -6 4 -8 3 -5 -3 4
-6 0 -13 -7 -16 -9 -4 -17 1 -19 11 -3 12 -5 11 -6 -5z"/>
<path d="M1144 531 c-2 -2 -4 -11 -3 -20 0 -12 3 -11 9 4 6 14 9 15 9 5 1 -9
11 -16 24 -17 12 0 16 1 9 4 -9 4 -10 8 -2 18 8 10 5 13 -15 11 -15 0 -29 -3
-31 -5z"/>
<path d="M1884 528 c-3 -5 -3 -12 0 -15 3 -4 6 0 6 8 1 10 3 9 11 -3 13 -23
28 -23 25 -1 -3 18 -33 27 -42 11z"/>
<path d="M1940 520 c0 -11 6 -20 14 -20 20 0 28 27 10 34 -23 9 -24 8 -24 -14z"/>
<path d="M2033 520 c-1 -15 4 -19 20 -18 15 1 23 9 23 20 0 23 -13 23 -19 1
-4 -17 -5 -17 -6 0 -1 24 -16 22 -18 -3z"/>
<path d="M436 521 c4 -7 7 -23 8 -35 1 -15 9 -22 28 -24 25 -3 26 -1 21 30 -7
45 -13 48 -14 7 0 -30 -2 -32 -12 -16 -18 28 -40 54 -31 38z"/>
<path d="M913 502 c-8 -5 -8 -12 3 -26 17 -24 31 -14 18 14 -5 11 -14 16 -21
12z"/>
<path d="M2123 489 c-4 -15 -8 -17 -14 -8 -4 8 -10 11 -13 8 -3 -2 -1 -11 4
-19 7 -12 12 -12 21 -3 9 9 16 9 25 3 8 -7 13 -6 18 5 4 11 1 15 -12 13 -9 -2
-16 3 -14 10 4 21 -10 13 -15 -9z"/>
<path d="M264 475 c11 -8 29 -15 39 -15 16 0 17 3 7 15 -7 8 -24 15 -39 15
-25 -1 -25 -1 -7 -15z"/>
<path d="M354 475 c17 -18 36 -20 36 -4 0 8 5 7 15 -1 13 -11 14 -10 9 4 -4
10 -18 16 -41 16 -31 0 -33 -2 -19 -15z"/>
<path d="M956 483 c-7 -8 3 -23 15 -23 6 0 7 5 4 10 -3 6 3 10 15 10 13 0 19
-4 14 -11 -5 -8 -1 -8 13 0 11 6 22 8 25 6 3 -3 23 -8 45 -11 40 -5 67 8 38
20 -8 3 -15 1 -15 -4 0 -6 -5 -10 -11 -10 -5 0 -8 4 -5 9 6 9 -129 13 -138 4z"/>
<path d="M1167 483 c-16 -15 -5 -23 31 -22 20 0 31 3 24 6 -6 2 -10 9 -6 14 3
5 -2 9 -11 9 -9 0 -13 -4 -10 -10 3 -5 -1 -10 -10 -10 -9 0 -13 5 -10 10 7 11
2 13 -8 3z"/>
<path d="M120 307 c0 -113 3 -147 16 -165 l15 -22 1353 0 c1038 0 1355 3 1364
12 8 8 12 59 12 165 0 127 -2 153 -14 153 -8 0 -18 -4 -21 -10 -9 -14 -1115
-14 -1115 0 0 13 -57 13 -65 0 -9 -14 -1495 -14 -1495 0 0 6 -11 10 -25 10
l-25 0 0 -143z m2169 87 c299 -3 548 -7 553 -10 11 -7 10 -61 -1 -68 -5 -3
-14 1 -21 9 -8 9 -35 14 -86 15 -87 1 -68 1 -224 1 -69 0 -161 1 -205 2 -44 1
-93 0 -110 -3 -16 -4 -42 -2 -58 3 -38 13 -74 2 -93 -29 -16 -24 -16 -26 15
-58 l33 -34 156 -6 c196 -8 167 -8 364 1 153 7 168 10 190 31 14 12 30 22 36
22 17 0 15 -85 -1 -102 -11 -11 -217 -13 -1138 -11 -618 1 -1129 2 -1134 2 -6
1 -10 18 -8 39 2 46 -28 82 -69 82 -21 0 -28 5 -28 18 0 42 -70 77 -122 61
-23 -7 -46 -6 -75 2 -36 10 -47 9 -67 -5 -34 -22 -38 -20 -34 11 l3 28 726 -2
c412 -1 739 2 755 7 16 5 45 7 64 4 19 -3 280 -7 579 -10z m-2044 -64 c3 -5
17 -10 30 -10 13 0 27 -5 30 -11 5 -6 11 -4 19 7 10 14 22 15 60 10 40 -6 47
-11 44 -27 -3 -19 -11 -21 -118 -21 -104 -1 -115 1 -119 17 -2 10 5 25 15 32
21 16 31 16 39 3z m2042 -27 c19 -2 33 1 33 7 0 7 5 8 13 3 14 -9 18 -9 75
-11 23 -1 42 -7 42 -13 0 -5 -5 -7 -12 -3 -7 5 -8 3 -3 -6 6 -10 11 -10 20 3
7 10 17 17 23 17 6 0 13 6 16 13 3 9 7 8 15 -4 8 -12 21 -14 61 -9 57 7 60 6
60 -26 0 -22 -3 -23 -87 -21 -59 1 -92 -2 -101 -10 -9 -9 -19 -10 -31 -4 -10
6 -60 11 -112 13 -94 3 -94 3 -97 30 -3 26 19 42 43 29 5 -2 24 -6 42 -8z
m375 7 c4 -12 52 -15 106 -6 35 6 42 5 42 -8 0 -9 -8 -16 -20 -16 -11 0 -20
-6 -20 -14 0 -11 -16 -14 -65 -15 l-65 0 0 34 c0 32 14 48 22 25z m-481 -16
c5 -3 9 -14 9 -25 0 -26 -59 -28 -61 -1 -1 16 -2 16 -6 0 -5 -22 -22 -23 -29
-3 -4 8 -12 15 -20 15 -8 0 -14 7 -14 16 0 14 8 16 56 10 31 -4 61 -9 65 -12z
m-1781 -89 l0 -56 -97 3 -98 3 -3 53 -3 52 100 0 101 0 0 -55z m128 -21 c-15
-32 -45 -40 -69 -18 -19 17 -21 47 -6 72 10 15 30 5 22 -11 -3 -7 2 -2 11 11
l17 23 18 -27 c14 -21 15 -32 7 -50z"/>
<path d="M222 208 l3 -43 50 -3 c27 -2 65 -1 82 3 31 5 33 9 33 45 l0 40 -86
0 -85 0 3 -42z m106 20 c9 -9 12 -9 12 0 0 7 5 12 10 12 6 0 10 -17 10 -37 0
-25 -3 -33 -9 -24 -5 8 -16 11 -30 6 -14 -4 -21 -2 -21 6 0 10 -3 10 -12 1 -9
-9 -14 -7 -24 6 -10 13 -12 14 -11 2 3 -25 -16 -27 -19 -2 -3 19 0 22 31 22
19 0 35 5 35 10 0 14 13 13 28 -2z"/>
<path d="M907 83 c-20 -19 -3 -30 48 -32 51 -1 55 1 54 22 -1 18 -2 18 -6 4
-4 -17 -6 -17 -17 -1 -11 15 -14 15 -27 1 -12 -13 -16 -13 -30 -1 -9 8 -19 11
-22 7z"/>
<path d="M1060 73 c0 -14 10 -19 50 -21 41 -2 50 0 50 14 0 13 -3 14 -15 4
-10 -9 -15 -9 -15 -1 0 6 -9 11 -21 11 -13 0 -18 -4 -14 -12 4 -7 0 -5 -8 5
-8 9 -17 17 -21 17 -3 0 -6 -8 -6 -17z"/>
<path d="M1311 73 c-1 -17 5 -23 19 -23 12 0 20 7 20 16 0 10 -6 14 -14 11 -8
-3 -17 -1 -20 6 -2 7 -5 2 -5 -10z"/>
<path d="M1479 83 c-1 -4 -1 -12 0 -16 1 -4 -7 -4 -16 1 -30 16 -103 13 -103
-4 0 -8 5 -14 10 -14 6 0 10 6 10 13 0 9 2 9 8 1 8 -14 119 -17 127 -4 3 5 -4
14 -15 20 -11 6 -21 7 -21 3z"/>
<path d="M1567 83 c-4 -3 -7 -13 -7 -20 0 -11 19 -14 91 -12 63 1 94 -2 99
-11 5 -8 9 -7 14 5 3 9 6 21 6 26 0 12 -57 11 -65 -1 -4 -6 -12 -7 -18 -3 -18
12 -97 14 -97 3 0 -6 -5 -10 -11 -10 -6 0 -9 7 -5 15 6 16 3 19 -7 8z"/>
<path d="M1817 83 c-4 -3 -7 -12 -7 -20 0 -9 17 -12 68 -11 57 1 68 4 68 19 0
11 -7 17 -18 16 -10 -1 -18 -4 -18 -7 0 -10 -40 -6 -40 5 0 5 -6 3 -13 -5 -14
-17 -37 -24 -37 -11 0 5 6 12 13 14 6 3 7 6 1 6 -6 1 -14 -2 -17 -6z"/>
<path d="M2057 76 c-4 -10 -7 -19 -7 -20 0 -1 13 -2 28 -2 18 0 29 5 29 14 0
8 -7 12 -18 9 -10 -3 -20 0 -22 6 -2 6 -6 3 -10 -7z"/>
<path d="M1170 65 c0 -10 10 -15 28 -15 19 0 29 5 29 15 0 10 -10 15 -29 15
-18 0 -28 -5 -28 -15z"/>
<path d="M1236 71 c-8 -12 30 -44 46 -38 8 3 6 6 -5 6 -14 1 -17 6 -12 21 4
14 2 20 -9 20 -8 0 -17 -4 -20 -9z"/>
</g>
</svg>
